<svg width="20" height="21" viewBox="0 0 20 21" fill="none" xmlns="http://www.w3.org/2000/svg">
<g id="vuesax/outline/arrow-right">
<g id="arrow-right">
<path id="Vector" d="M12.0253 16.1834C11.8669 16.1834 11.7086 16.1251 11.5836 16.0001C11.3419 15.7584 11.3419 15.3584 11.5836 15.1168L16.2003 10.5001L11.5836 5.88343C11.3419 5.64176 11.3419 5.24176 11.5836 5.0001C11.8253 4.75843 12.2253 4.75843 12.4669 5.0001L17.5253 10.0584C17.7669 10.3001 17.7669 10.7001 17.5253 10.9418L12.4669 16.0001C12.3419 16.1251 12.1836 16.1834 12.0253 16.1834Z" fill="#0072C6"/>
<path id="Vector_2" d="M16.942 11.125H2.91699C2.57533 11.125 2.29199 10.8417 2.29199 10.5C2.29199 10.1583 2.57533 9.875 2.91699 9.875H16.942C17.2837 9.875 17.567 10.1583 17.567 10.5C17.567 10.8417 17.2837 11.125 16.942 11.125Z" fill="#0072C6"/>
</g>
</g>
</svg>
